<svg width="47" height="36" viewBox="0 0 47 36" fill="none" xmlns="http://www.w3.org/2000/svg">
<path d="M39.7872 2.95309C36.7911 1.58826 33.5795 0.579463 30.2211 0.0058355C30.1912 3.57664e-05 30.1602 0.00377333 30.1325 0.0165313C30.1048 0.0292894 30.0817 0.0504366 30.0664 0.0770444C29.6551 0.806935 29.1969 1.75837 28.8757 2.51001C25.3138 1.97246 21.6926 1.97246 18.1307 2.51001C17.773 1.67699 17.3696 0.864742 16.9224 0.0770444C16.9073 0.0501091 16.8843 0.0284834 16.8567 0.0150534C16.829 0.00162329 16.798 -0.0029726 16.7677 0.00187927C13.4112 0.575506 10.1996 1.5843 7.20152 2.95111C7.17573 2.96204 7.15386 2.98068 7.13886 3.00452C1.0447 12.054 -0.625707 20.8799 0.194811 29.5951C0.197094 29.6164 0.203653 29.6371 0.21409 29.6558C0.224526 29.6745 0.238621 29.6909 0.255517 29.7039C3.81252 32.3197 7.77988 34.3123 11.9915 35.5984C12.0208 35.6075 12.0522 35.6075 12.0816 35.5983C12.1109 35.5892 12.1368 35.5713 12.156 35.547C13.0622 34.3227 13.8653 33.0239 14.5568 31.6641C14.5664 31.6455 14.5719 31.6251 14.573 31.6041C14.5741 31.5832 14.5707 31.5623 14.5631 31.5428C14.5555 31.5232 14.5438 31.5056 14.5289 31.4911C14.514 31.4765 14.4961 31.4654 14.4765 31.4584C13.2115 30.9772 11.9858 30.3965 10.8106 29.7217C10.7895 29.7095 10.7717 29.6922 10.7588 29.6714C10.746 29.6506 10.7384 29.6268 10.7369 29.6023C10.7353 29.5778 10.7398 29.5533 10.7499 29.531C10.7601 29.5087 10.7756 29.4892 10.795 29.4744C11.0417 29.2905 11.2884 29.0986 11.5234 28.9068C11.5446 28.8895 11.5701 28.8785 11.597 28.875C11.624 28.8715 11.6514 28.8757 11.6762 28.887C19.3663 32.3762 27.6949 32.3762 35.295 28.887C35.3198 28.875 35.3475 28.8703 35.3748 28.8735C35.4022 28.8766 35.4281 28.8875 35.4497 28.9048C35.6847 29.0986 35.9294 29.2905 36.1781 29.4744C36.1977 29.4889 36.2135 29.5081 36.2239 29.5302C36.2344 29.5524 36.2393 29.5768 36.2381 29.6013C36.2369 29.6258 36.2298 29.6496 36.2173 29.6706C36.2047 29.6916 36.1873 29.7092 36.1664 29.7217C34.9953 30.4021 33.7773 30.9777 32.4985 31.4564C32.4789 31.4636 32.461 31.475 32.4461 31.4897C32.4311 31.5045 32.4194 31.5223 32.4118 31.5419C32.4042 31.5616 32.4009 31.5826 32.402 31.6037C32.4031 31.6248 32.4086 31.6454 32.4183 31.6641C33.1232 33.023 33.93 34.3166 34.8171 35.545C34.8356 35.5702 34.8613 35.589 34.8907 35.599C34.9202 35.6089 34.9519 35.6094 34.9816 35.6004C39.2005 34.3179 43.1743 32.3243 46.7352 29.7039C46.7526 29.6916 46.7672 29.6757 46.778 29.6573C46.7888 29.6389 46.7956 29.6184 46.7979 29.5971C47.777 19.521 45.1568 10.7663 39.848 3.00848C39.8349 2.98327 39.8134 2.96361 39.7872 2.95309ZM15.7063 24.2881C13.3916 24.2881 11.4823 22.1736 11.4823 19.5804C11.4823 16.9852 13.3544 14.8727 15.7063 14.8727C18.0758 14.8727 19.9675 17.003 19.9303 19.5804C19.9303 22.1755 18.0582 24.2881 15.7063 24.2881V24.2881ZM31.3236 24.2881C29.0069 24.2881 27.0996 22.1736 27.0996 19.5804C27.0996 16.9852 28.9697 14.8727 31.3236 14.8727C33.6931 14.8727 35.5848 17.003 35.5476 19.5804C35.5476 22.1755 33.695 24.2881 31.3236 24.2881V24.2881Z" fill="white"/>
</svg>
