<svg width="49" height="34" viewBox="0 0 49 34" fill="none" xmlns="http://www.w3.org/2000/svg">
<path d="M47.9771 5.24415C47.6925 4.23386 47.1499 3.31366 46.4021 2.57265C45.6542 1.83165 44.7263 1.29494 43.7082 1.0145C39.8865 4.84995e-05 24.5234 4.87448e-05 24.5234 4.87448e-05C24.5234 4.87448e-05 9.18929 -0.0242861 5.32782 1.0145C4.31136 1.29617 3.38528 1.83344 2.63907 2.57438C1.89286 3.31532 1.35177 4.23487 1.0681 5.24415C0.342367 9.12889 -0.0150666 13.0726 0.000486449 17.0236C-0.00659485 20.9556 0.350782 24.8798 1.0681 28.7468C1.35269 29.7566 1.89394 30.6768 2.63989 31.4191C3.38584 32.1614 4.31143 32.7008 5.32782 32.9856C9.14946 34 24.5234 34 24.5234 34C24.5234 34 39.8482 34 43.7082 32.9856C44.7262 32.702 45.6536 32.1632 46.4012 31.4208C47.1489 30.6785 47.6915 29.7576 47.9771 28.7468C48.6801 24.8821 49.0233 20.9521 48.9987 17.0236C49.0233 13.0692 48.6878 9.13312 47.9771 5.24415V5.24415ZM19.6157 24.3042V9.71106L32.4041 17.0236L19.6157 24.3042Z" fill="white"/>
</svg>
