<svg width="483" height="162" viewBox="0 0 483 162" fill="none" xmlns="http://www.w3.org/2000/svg">
<path d="M473.738 85.8574C473.644 85.762 473.549 85.6613 473.45 85.5659C473.355 85.4704 473.261 85.3697 473.161 85.2743C473.066 85.1788 472.972 85.0781 472.872 84.9827C472.778 84.8873 472.683 84.7866 472.583 84.6912C472.489 84.5957 472.394 84.495 472.294 84.3996C472.2 84.3042 472.105 84.2035 472.006 84.108C471.974 84.0762 471.948 84.0444 471.916 84.0179C472.331 84.1504 472.757 84.2671 473.198 84.3625C473.775 84.4897 474.332 84.5533 474.862 84.5533C477.477 84.5533 480.538 82.7986 480.538 77.8527C480.538 75.8329 480.418 73.7814 480.302 71.7988C480.186 69.8426 480.071 67.8229 480.071 65.8668C480.076 59.9772 480.533 56.2187 481.426 54.7079C481.651 54.3262 481.772 53.8862 481.772 53.4409C481.772 52.5662 481.378 51.7604 480.733 51.1932C480.643 51.0925 480.549 50.9918 480.444 50.9016C480.355 50.8009 480.26 50.7002 480.155 50.6101C480.066 50.5093 479.971 50.4086 479.866 50.3185C479.777 50.2178 479.682 50.1171 479.577 50.0269C479.488 49.9262 479.394 49.8255 479.289 49.7354C479.199 49.6347 479.105 49.5339 479 49.4438C478.911 49.3431 478.816 49.2424 478.711 49.1522C478.622 49.0515 478.527 48.9508 478.422 48.8607C478.333 48.76 478.238 48.6592 478.133 48.5691C478.044 48.4684 477.95 48.3677 477.845 48.2776C477.755 48.1768 477.661 48.0761 477.556 47.986C477.467 47.8853 477.372 47.7846 477.267 47.6944C477.178 47.5937 477.083 47.493 476.978 47.4029C476.889 47.3022 476.794 47.2014 476.689 47.1113C476.6 47.0106 476.506 46.9099 476.401 46.8197C476.311 46.719 476.217 46.6183 476.112 46.5282C476.023 46.4275 475.928 46.3267 475.823 46.2366C475.734 46.1359 475.639 46.0352 475.534 45.9451C475.445 45.8443 475.35 45.7436 475.245 45.6535C475.156 45.5528 475.062 45.452 474.957 45.3619C474.867 45.2612 474.773 45.1605 474.668 45.0704C474.579 44.9697 474.484 44.8689 474.379 44.7788C474.29 44.6781 474.195 44.5774 474.09 44.4872C474.001 44.3865 473.906 44.2858 473.801 44.1957C473.712 44.0949 473.618 43.9942 473.513 43.9041C473.423 43.8034 473.329 43.7027 473.224 43.6126C473.135 43.5118 473.04 43.4111 472.935 43.321C472.846 43.2203 472.751 43.1195 472.646 43.0294C472.557 42.9287 472.462 42.828 472.357 42.7379C472.268 42.6371 472.174 42.5364 472.069 42.4463C471.979 42.3456 471.885 42.2449 471.78 42.1547C471.691 42.054 471.596 41.9533 471.491 41.8632C471.402 41.7624 471.307 41.6617 471.202 41.5716C471.113 41.4709 471.019 41.3702 470.913 41.28C470.824 41.1793 470.73 41.0786 470.625 40.9885C470.535 40.8878 470.441 40.787 470.336 40.6969C470.247 40.5962 470.152 40.4955 470.047 40.4054C469.958 40.3046 469.863 40.2039 469.758 40.1138C469.669 40.0131 469.575 39.9123 469.47 39.8222C469.38 39.7215 469.286 39.6208 469.181 39.5307C469.091 39.4299 468.997 39.3292 468.892 39.2391C468.803 39.1384 468.708 39.0377 468.603 38.9475C468.514 38.8468 468.419 38.7461 468.314 38.656C468.225 38.5553 468.131 38.4545 468.026 38.3644C467.936 38.2637 467.842 38.163 467.737 38.0729C467.647 37.9721 467.553 37.8714 467.448 37.7813C467.359 37.6806 467.264 37.5798 467.159 37.4897C467.07 37.389 466.975 37.2883 466.87 37.1982C466.781 37.0974 466.687 36.9967 466.582 36.9066C466.492 36.8059 466.398 36.7052 466.293 36.615C465.925 36.1962 465.447 35.8623 464.88 35.6767C464.633 35.5972 464.371 35.5548 464.114 35.5548C463.919 35.5548 463.778 35.576 463.499 35.6131C462.874 35.6979 461.404 35.8994 459.624 35.8994C457.881 35.8994 456.369 35.7032 455.129 35.3216C450.939 34.0281 446.744 32.2575 442.69 30.5452C438.642 28.8382 434.457 27.073 430.162 25.7159C428.229 25.1062 426.313 24.7935 424.48 24.7935C422.018 24.7935 419.702 25.3448 417.607 26.4103C417.544 26.3414 417.476 26.2725 417.402 26.2089C417.313 26.1029 417.218 26.0074 417.113 25.9173C417.024 25.8113 416.93 25.7159 416.825 25.6257C416.735 25.5197 416.641 25.4243 416.536 25.3342C416.447 25.2282 416.352 25.1327 416.247 25.0426C416.158 24.9366 416.063 24.8412 415.958 24.7511C415.869 24.645 415.775 24.5496 415.669 24.4595C415.58 24.3535 415.486 24.2581 415.381 24.1679C415.291 24.0619 415.197 23.9665 415.092 23.8764C415.003 23.7704 414.908 23.6749 414.803 23.5848C414.714 23.4788 414.619 23.3834 414.514 23.2932C414.425 23.1872 414.331 23.0918 414.226 23.0017C414.136 22.8957 414.042 22.8002 413.937 22.7101C413.847 22.6041 413.753 22.5087 413.648 22.4186C413.559 22.3125 413.464 22.2171 413.359 22.127C413.27 22.021 413.175 21.9256 413.07 21.8354C412.787 21.5068 412.44 21.2417 412.041 21.0562C411.905 20.9925 411.763 20.9448 411.616 20.9077C403.803 18.994 395.853 17.1863 387.982 15.5271C387.819 15.49 387.651 15.4741 387.483 15.4741C387.478 15.4741 387.467 15.4741 387.462 15.4741C386.48 15.4847 385.593 15.9989 385.094 16.8524C384.322 18.1723 384.721 19.9164 385.304 21.0085C385.32 21.035 385.33 21.0615 385.346 21.088C385.488 21.3371 385.619 21.5757 385.761 21.8248C385.729 21.793 385.698 21.7612 385.661 21.7347C385.572 21.6287 385.477 21.5333 385.372 21.4432C385.283 21.3371 385.188 21.2417 385.083 21.1516C384.994 21.0456 384.9 20.9501 384.795 20.86C384.705 20.754 384.611 20.6586 384.506 20.5685C384.417 20.4624 384.322 20.367 384.217 20.2769C384.128 20.1709 384.033 20.0755 383.928 19.9853C383.839 19.8793 383.744 19.7839 383.639 19.6938C383.55 19.5877 383.456 19.4923 383.351 19.4022C383.261 19.2962 383.167 19.2008 383.062 19.1106C382.973 19.0046 382.878 18.9092 382.773 18.8191C382.684 18.7131 382.589 18.6176 382.484 18.5275C382.395 18.4215 382.3 18.3261 382.195 18.2359C382.106 18.1299 382.012 18.0345 381.907 17.9444C381.817 17.8384 381.723 17.743 381.618 17.6528C381.529 17.5468 381.434 17.4514 381.329 17.3613C381.24 17.2552 381.145 17.1598 381.04 17.0697C380.951 16.9637 380.856 16.8683 380.751 16.7781C380.662 16.6721 380.568 16.5767 380.463 16.4866C380.373 16.3806 380.279 16.2851 380.174 16.195C380.085 16.089 379.99 15.9936 379.885 15.9034C379.796 15.7974 379.701 15.702 379.596 15.6119C379.507 15.5059 379.412 15.4104 379.307 15.3203C379.218 15.2143 379.124 15.1189 379.019 15.0288C378.929 14.9227 378.835 14.8273 378.73 14.7372C378.641 14.6312 378.546 14.5357 378.441 14.4456C378.352 14.3396 378.257 14.2442 378.152 14.1541C377.853 13.8095 377.485 13.5338 377.06 13.3536C376.908 13.29 376.745 13.2423 376.582 13.2105C368.701 11.6784 360.693 10.2524 352.775 8.98015C352.649 8.95894 352.518 8.94834 352.386 8.94834C352.329 8.94834 352.271 8.94835 352.213 8.95365C351.914 8.97485 351.63 9.04906 351.363 9.16038C351.126 8.96424 350.858 8.79991 350.57 8.68859C350.407 8.62498 350.234 8.57726 350.06 8.55075C342.147 7.30498 334.103 6.17054 326.153 5.18452C326.053 5.17392 325.954 5.16331 325.854 5.16331C325.759 5.16331 325.665 5.16863 325.57 5.17923C324.641 5.28526 323.859 5.83126 323.412 6.67414C322.583 8.24328 323.318 10.1305 323.58 10.7136C325.061 14.6365 325.476 19.0046 325.539 23.4629C325.455 23.3728 325.366 23.288 325.276 23.2031C325.182 23.1024 325.082 23.007 324.988 22.9116C324.893 22.8108 324.799 22.7154 324.699 22.62C324.604 22.5193 324.505 22.4239 324.41 22.3284C324.315 22.2277 324.221 22.1323 324.121 22.0369C324.027 21.9362 323.932 21.8407 323.832 21.7453C323.738 21.6446 323.638 21.5492 323.544 21.4537C323.449 21.353 323.355 21.2576 323.255 21.1622C323.16 21.0615 323.066 20.966 322.966 20.8706C322.871 20.7699 322.772 20.6745 322.677 20.5791C322.583 20.4783 322.488 20.3829 322.388 20.2875C322.294 20.1868 322.199 20.0914 322.1 19.9959C322.005 19.8952 321.905 19.7998 321.811 19.7044C321.716 19.6037 321.622 19.5082 321.522 19.4128C321.428 19.3121 321.328 19.2167 321.233 19.1212C321.139 19.0205 321.039 18.9251 320.944 18.8297C320.85 18.729 320.75 18.6335 320.656 18.5381C320.561 18.4374 320.461 18.342 320.367 18.2466C320.272 18.1458 320.173 18.0504 320.078 17.955C319.984 17.8543 319.889 17.7589 319.789 17.6634C319.695 17.5627 319.595 17.4673 319.5 17.3719C319.406 17.2712 319.311 17.1757 319.212 17.0803C319.117 16.9796 319.023 16.8842 318.923 16.7887C318.828 16.688 318.729 16.5926 318.634 16.4972C318.54 16.3964 318.445 16.301 318.345 16.2056C318.251 16.1049 318.156 16.0095 318.056 15.9141C317.962 15.8133 317.862 15.7179 317.768 15.6225C317.673 15.5218 317.579 15.4263 317.479 15.3309C317.384 15.2302 317.29 15.1348 317.19 15.0394C317.096 14.9386 316.996 14.8432 316.901 14.7478C316.807 14.6471 316.712 14.5517 316.612 14.4562C316.518 14.3555 316.418 14.2601 316.324 14.1647C316.229 14.0639 316.129 13.9685 316.035 13.8731C315.94 13.7724 315.841 13.677 315.746 13.5815C315.652 13.4808 315.552 13.3854 315.457 13.29C315.363 13.1893 315.263 13.0938 315.169 12.9984C315.074 12.8977 314.979 12.8023 314.88 12.7069C314.785 12.6061 314.685 12.5107 314.591 12.4153C314.496 12.3146 314.402 12.2191 314.302 12.1237C314.208 12.023 314.113 11.9276 314.013 11.8322C313.919 11.7314 313.819 11.636 313.725 11.5406C313.63 11.4399 313.536 11.3445 313.436 11.249C313.341 11.1483 313.247 11.0529 313.147 10.9575C313.094 10.9045 313.042 10.8462 312.989 10.7931C312.627 10.4115 312.26 10.0457 311.881 9.71171C304.635 3.09587 294.722 1.66986 286.893 1.17155L286.704 1.16095C286.016 1.11324 284.588 1.02312 283.091 1.02312C282.928 1.02312 282.766 1.02312 282.608 1.02842C275.603 0.567224 272.148 0.38169 265.102 0.0901266C265.07 0.0901266 265.034 0.0901266 265.002 0.0901266C264.834 0.0901266 264.666 0.106033 264.503 0.143141C263.626 0.328682 262.902 0.911807 262.508 1.74939C261.857 3.13299 262.324 4.85055 262.749 5.76235C264.971 11.689 264.902 18.607 264.766 25.3448C264.046 24.4754 263.296 23.6484 262.524 22.8692C262.429 22.7684 262.329 22.673 262.235 22.5776C262.14 22.4769 262.041 22.3815 261.946 22.286C261.852 22.1853 261.752 22.0899 261.657 21.9945C261.563 21.8937 261.463 21.7983 261.368 21.7029C261.274 21.6022 261.174 21.5068 261.08 21.4113C260.985 21.3106 260.885 21.2152 260.791 21.1198C260.696 21.0191 260.597 20.9236 260.502 20.8282C260.408 20.7275 260.308 20.6321 260.213 20.5366C260.119 20.4359 260.019 20.3405 259.924 20.2451C259.83 20.1444 259.73 20.049 259.636 19.9535C259.541 19.8528 259.441 19.7574 259.347 19.662C259.252 19.5612 259.153 19.4658 259.058 19.3704C258.964 19.2697 258.864 19.1742 258.769 19.0788C258.675 18.9781 258.575 18.8827 258.481 18.7873C258.386 18.6865 258.286 18.5911 258.192 18.4957C258.097 18.395 257.997 18.2996 257.903 18.2041C257.808 18.1034 257.709 18.008 257.614 17.9126C257.52 17.8119 257.42 17.7164 257.325 17.621C257.231 17.5203 257.131 17.4249 257.037 17.3295C256.942 17.2287 256.842 17.1333 256.748 17.0379C256.653 16.9372 256.553 16.8417 256.459 16.7463C256.364 16.6456 256.265 16.5502 256.17 16.4548C256.076 16.354 255.976 16.2586 255.881 16.1632C255.787 16.0625 255.687 15.9671 255.593 15.8716C255.498 15.7709 255.398 15.6755 255.304 15.5801C255.209 15.4794 255.109 15.3839 255.015 15.2885C254.92 15.1878 254.821 15.0924 254.726 14.997C254.632 14.8962 254.532 14.8008 254.437 14.7054C254.343 14.6047 254.243 14.5092 254.149 14.4138C254.054 14.3131 253.954 14.2177 253.86 14.1223C253.765 14.0215 253.665 13.9261 253.571 13.8307C253.476 13.73 253.377 13.6346 253.282 13.5391C253.188 13.4384 253.088 13.343 252.993 13.2476C252.899 13.1468 252.799 13.0514 252.705 12.956C252.61 12.8553 252.51 12.7599 252.416 12.6645C252.321 12.5637 252.222 12.4683 252.127 12.3729C252.032 12.2722 251.933 12.1767 251.838 12.0813C251.744 11.9806 251.644 11.8852 251.549 11.7897C251.455 11.689 251.355 11.5936 251.261 11.4982C251.166 11.3975 251.066 11.3021 250.972 11.2066C250.877 11.1059 250.778 11.0105 250.683 10.9151C250.588 10.8143 250.489 10.7189 250.394 10.6235C250.3 10.5228 250.2 10.4274 250.105 10.3319C250.011 10.2312 249.911 10.1358 249.817 10.0404C249.722 9.93965 249.622 9.84424 249.528 9.74882C249.433 9.6481 249.334 9.55267 249.239 9.45725C249.145 9.35652 249.045 9.26111 248.95 9.16569C248.856 9.06497 248.756 8.96954 248.661 8.87412C248.567 8.7734 248.467 8.67798 248.373 8.58256C248.278 8.48184 248.178 8.38642 248.084 8.291C245.973 6.11753 243.663 4.26212 241.163 2.74599C241.147 2.73539 241.132 2.73009 241.121 2.71949C238.974 1.47902 235.702 0 232.289 0C231.922 0 231.423 0.0530167 230.578 0.137835C229.879 0.212051 229.008 0.302175 228.551 0.307476H228.498C227.973 0.307476 227.091 0.217346 226.45 0.148432C225.794 0.0795166 225.406 0.0424182 225.048 0.0424182C225.048 0.0424182 225.048 0.0424182 225.043 0.0424182C221.667 0.0795263 218.401 1.59035 216.253 2.85733C195.423 14.5676 193.937 46.6872 193.974 56.2611C193.985 58.355 194.074 61.5463 194.436 65.3578C194.426 65.3472 194.42 65.3419 194.41 65.3313C194.389 65.3101 194.373 65.2836 194.352 65.2624C194.279 65.1829 194.2 65.114 194.121 65.0451C194.1 65.0239 194.084 64.9974 194.063 64.9762C193.99 64.8967 193.911 64.8278 193.832 64.7588C193.811 64.7376 193.795 64.7111 193.774 64.6899C193.701 64.6104 193.622 64.5415 193.543 64.4726C193.522 64.4514 193.507 64.4249 193.486 64.4036C193.412 64.3241 193.333 64.2552 193.255 64.1863C193.234 64.1651 193.218 64.1386 193.197 64.1174C193.123 64.0379 193.045 63.969 192.966 63.9C192.945 63.8788 192.929 63.8523 192.908 63.8311C192.835 63.7516 192.756 63.6827 192.677 63.6138C192.656 63.5926 192.64 63.5661 192.619 63.5449C192.546 63.4653 192.467 63.3964 192.388 63.3275C192.367 63.3063 192.351 63.2798 192.33 63.2586C192.257 63.1791 192.178 63.1102 192.099 63.0413C192.078 63.0201 192.063 62.9935 192.042 62.9723C191.968 62.8928 191.889 62.8239 191.811 62.755C191.79 62.7338 191.774 62.7073 191.753 62.6861C190.65 61.5304 189.264 60.889 187.841 60.889C187.505 60.889 187.164 60.9261 186.833 60.995C180.217 62.4051 177.114 69.5458 174.74 75.7958L174.493 45.7489C174.478 45.0015 174.457 44.2487 174.441 43.4906C174.268 36.6627 174.089 29.6069 176.347 23.5848C176.61 23.0017 177.339 21.1251 176.531 19.5506C176.357 19.2167 176.132 18.9304 175.864 18.6919C175.775 18.5858 175.68 18.4904 175.575 18.4003C175.486 18.2943 175.386 18.1988 175.286 18.1087C175.197 18.0027 175.103 17.9073 174.997 17.8172C174.908 17.7111 174.814 17.6157 174.709 17.5256C174.619 17.4196 174.525 17.3242 174.42 17.234C174.331 17.128 174.236 17.0326 174.131 16.9425C174.042 16.8364 173.947 16.741 173.842 16.6509C173.753 16.5449 173.659 16.4495 173.554 16.3594C173.464 16.2533 173.37 16.1579 173.265 16.0678C173.175 15.9618 173.076 15.8663 172.976 15.7762C172.887 15.6702 172.792 15.5748 172.687 15.4846C172.598 15.3786 172.503 15.2832 172.398 15.1931C172.309 15.0871 172.209 14.9917 172.11 14.9015C172.02 14.7955 171.926 14.7001 171.821 14.61C171.731 14.5039 171.637 14.4085 171.532 14.3184C171.443 14.2124 171.348 14.117 171.243 14.0268C171.154 13.9208 171.059 13.8254 170.954 13.7353C170.865 13.6293 170.771 13.5338 170.666 13.4437C170.576 13.3377 170.477 13.2423 170.377 13.1521C170.287 13.0461 170.193 12.9507 170.088 12.8606C169.999 12.7546 169.904 12.6591 169.799 12.569C169.71 12.463 169.615 12.3676 169.51 12.2775C169.421 12.1714 169.327 12.076 169.222 11.9859C169.132 11.8799 169.038 11.7845 168.933 11.6943C168.844 11.5883 168.749 11.4929 168.644 11.4028C168.555 11.2968 168.46 11.2013 168.355 11.1112C168.266 11.0052 168.166 10.9098 168.066 10.8196C167.977 10.7136 167.883 10.6182 167.778 10.5281C167.688 10.4221 167.594 10.3266 167.489 10.2365C167.4 10.1305 167.3 10.0351 167.2 9.94496C167.111 9.83894 167.016 9.74351 166.911 9.65339C166.822 9.54736 166.727 9.45195 166.622 9.36183C166.533 9.25581 166.433 9.16039 166.334 9.07027C166.244 8.96425 166.15 8.86882 166.045 8.7787C165.956 8.67268 165.861 8.57726 165.756 8.48714C165.667 8.38112 165.567 8.28569 165.467 8.19557C165.378 8.08955 165.283 7.99413 165.178 7.90401C165.089 7.79799 164.995 7.70258 164.89 7.61246C164.8 7.50643 164.706 7.411 164.601 7.32088C164.512 7.21486 164.417 7.11945 164.312 7.02933C164.223 6.9233 164.128 6.82787 164.023 6.73775C163.934 6.63173 163.839 6.53632 163.734 6.4462C163.645 6.34018 163.551 6.24476 163.446 6.15464C163.356 6.04862 163.262 5.95319 163.157 5.86307C163.068 5.75705 162.973 5.66163 162.868 5.57151C162.779 5.46549 162.684 5.37006 162.579 5.27994C162.49 5.17392 162.39 5.0785 162.29 4.98838C162.201 4.88236 162.107 4.78695 162.002 4.69683C161.912 4.5908 161.818 4.49537 161.713 4.40525C161.624 4.29923 161.524 4.20382 161.424 4.1137C160.983 3.59418 160.379 3.25491 159.697 3.15419C159.581 3.13829 159.466 3.12767 159.345 3.12767C159.266 3.12767 159.182 3.13299 159.103 3.13829C151.138 3.93876 143.078 4.87706 135.138 5.93199C134.955 5.95849 134.781 6.0009 134.608 6.06451C133.784 6.37198 133.138 7.05053 132.839 7.91992C132.418 9.14978 132.749 10.6076 133.29 11.5883C135.485 16.688 135.564 22.8373 135.511 28.8754C135.506 28.8701 135.495 28.8647 135.49 28.8541C135.396 28.7534 135.296 28.658 135.201 28.5626C135.107 28.4619 135.007 28.3665 134.913 28.271C134.818 28.1703 134.718 28.0749 134.624 27.9795C134.529 27.8787 134.43 27.7833 134.335 27.6879C134.241 27.5872 134.141 27.4918 134.046 27.3963C133.952 27.2956 133.852 27.2002 133.757 27.1048C133.663 27.0041 133.563 26.9086 133.469 26.8132C133.374 26.7125 133.274 26.6171 133.18 26.5216C133.085 26.4209 132.986 26.3255 132.891 26.2301C132.797 26.1294 132.697 26.0339 132.602 25.9385C132.508 25.8378 132.408 25.7424 132.313 25.647C132.219 25.5462 132.119 25.4508 132.025 25.3554C131.93 25.2547 131.83 25.1592 131.736 25.0638C131.641 24.9631 131.542 24.8677 131.447 24.7723C131.353 24.6715 131.253 24.5761 131.158 24.4807C131.064 24.38 130.964 24.2846 130.869 24.1891C130.775 24.0884 130.675 23.993 130.581 23.8976C130.486 23.7969 130.386 23.7014 130.292 23.606C130.197 23.5053 130.098 23.4099 130.003 23.3145C129.909 23.2137 129.809 23.1183 129.714 23.0229C129.62 22.9222 129.52 22.8267 129.426 22.7313C129.331 22.6306 129.231 22.5352 129.137 22.4398C129.042 22.339 128.942 22.2436 128.848 22.1482C128.753 22.0475 128.654 21.9521 128.559 21.8566C128.465 21.7559 128.365 21.6605 128.27 21.5651C128.176 21.4643 128.076 21.3689 127.982 21.2735C127.887 21.1728 127.787 21.0774 127.693 20.982C127.598 20.8812 127.498 20.7858 127.404 20.6904C127.309 20.5897 127.21 20.4942 127.115 20.3988C121.754 14.8167 113.62 11.7579 103.282 11.7579C99.9473 11.7579 96.4713 12.0919 92.9427 12.7493C85.056 14.2601 77.0799 15.9246 69.2404 17.6899C69.0882 17.727 68.9359 17.7747 68.7941 17.8384C68.4318 17.9974 68.1168 18.2307 67.849 18.5063C67.5129 18.3791 67.1506 18.3049 66.7673 18.3049C66.5993 18.3102 66.4312 18.3261 66.2632 18.3685C58.4185 20.1709 50.495 22.127 42.7027 24.1838C42.561 24.2209 42.4297 24.2687 42.2984 24.3323C41.4373 24.7352 40.8229 25.5091 40.6076 26.4633C40.3556 27.5872 40.6864 28.9231 41.453 29.8614C41.4793 29.8932 41.5003 29.9197 41.5265 29.9462C44.2622 32.989 44.9186 36.615 44.4618 40.4C44.3882 40.3205 44.3095 40.241 44.2255 40.1721C44.1362 40.0661 44.0417 39.9707 43.9367 39.8805C43.8474 39.7745 43.7529 39.6791 43.6479 39.589C43.5586 39.4829 43.4641 39.3875 43.3591 39.2974C43.2698 39.1914 43.1753 39.096 43.0703 39.0059C42.981 38.8998 42.8865 38.8044 42.7815 38.7143C42.6922 38.6083 42.5977 38.5128 42.4927 38.4227C42.4034 38.3167 42.3089 38.2213 42.2039 38.1312C42.1146 38.0251 42.0201 37.9297 41.9151 37.8396C41.8258 37.7336 41.7313 37.6382 41.6263 37.548C41.537 37.442 41.4425 37.3466 41.3375 37.2565C41.2482 37.1504 41.1537 37.055 41.0487 36.9649C40.9595 36.8589 40.8649 36.7635 40.7599 36.6733C40.6707 36.5673 40.5761 36.4719 40.4711 36.3818C40.3819 36.2758 40.2873 36.1803 40.1823 36.0902C40.0931 35.9842 39.9985 35.8888 39.8935 35.7987C39.8043 35.6926 39.7098 35.5972 39.6047 35.5071C39.5155 35.4011 39.421 35.3056 39.3159 35.2155C39.2267 35.1095 39.1322 35.0141 39.0271 34.924C38.9379 34.8179 38.8434 34.7225 38.7384 34.6324C38.6491 34.5264 38.5546 34.431 38.4496 34.3408C38.3603 34.2348 38.2658 34.1394 38.1608 34.0493C38.0715 33.9433 37.977 33.8478 37.872 33.7577C37.7827 33.6517 37.6882 33.5563 37.5832 33.4662C37.4939 33.3601 37.3994 33.2647 37.2944 33.1746C37.2051 33.0686 37.1106 32.9731 37.0056 32.883C36.9163 32.777 36.8218 32.6816 36.7168 32.5915C36.6275 32.4854 36.533 32.39 36.428 32.2999C36.3387 32.1939 36.2442 32.0985 36.1392 32.0083C36.0499 31.9023 35.9554 31.8069 35.8504 31.7168C35.7611 31.6108 35.6666 31.5153 35.5616 31.4252C35.4723 31.3192 35.3778 31.2238 35.2728 31.1336C35.1835 31.0276 35.089 30.9322 34.984 30.8421C34.8947 30.7361 34.8002 30.6406 34.6952 30.5505C34.6059 30.4445 34.5114 30.3491 34.4064 30.259C34.3171 30.1529 34.2226 30.0575 34.1176 29.9674C34.0284 29.8614 33.9338 29.766 33.8288 29.6758C33.7396 29.5698 33.645 29.4744 33.54 29.3843C33.4508 29.2782 33.3562 29.1828 33.2512 29.0927C33.162 28.9867 33.0674 28.8913 32.9624 28.8011C32.8732 28.6951 32.7787 28.5997 32.6736 28.5096C32.1591 27.9052 31.4187 27.5554 30.6048 27.5554C30.5313 27.5554 30.421 27.5607 30.3475 27.566C30.1952 27.5819 30.043 27.6084 29.8907 27.6508C20.6335 30.3226 11.2712 33.1746 2.06652 36.1167C1.94575 36.1538 1.83023 36.2015 1.71997 36.2599C0.811571 36.7157 0.197225 37.5586 0.0397002 38.5765C-0.128327 39.6632 0.244483 40.8189 1.01636 41.6246C2.43408 43.2521 5.45856 46.9788 10.0268 53.9339C14.9311 61.6258 19.7618 69.5458 24.7659 78.1018C19.6253 85.5817 13.7864 91.5561 7.62715 97.8645C5.4113 100.133 3.12194 102.477 0.843077 104.915C0.79582 104.968 0.748561 105.021 0.706554 105.074C-0.0233116 106.002 -0.20184 107.285 0.23923 108.43C0.444013 108.96 0.759062 109.405 1.15287 109.755C1.24214 109.861 1.34191 109.956 1.44167 110.047C1.53094 110.153 1.6307 110.248 1.73047 110.338C1.81973 110.444 1.9195 110.54 2.01926 110.63C2.10853 110.736 2.20829 110.831 2.30806 110.921C2.39732 111.027 2.49709 111.123 2.59685 111.213C2.68612 111.319 2.78589 111.414 2.88565 111.504C2.97492 111.61 3.07468 111.706 3.17445 111.796C3.26371 111.902 3.36348 111.997 3.46324 112.087C3.55251 112.194 3.65227 112.289 3.75204 112.379C3.8413 112.485 3.94107 112.58 4.04083 112.671C4.1301 112.777 4.22986 112.872 4.32963 112.962C4.41889 113.068 4.51866 113.164 4.61843 113.254C4.70769 113.36 4.80746 113.455 4.90722 113.545C4.99649 113.651 5.09625 113.747 5.19602 113.837C5.28528 113.943 5.38505 114.038 5.48481 114.128C5.57408 114.234 5.67384 114.33 5.77361 114.42C5.86287 114.526 5.96264 114.621 6.06241 114.712C6.15167 114.818 6.25144 114.913 6.3512 115.003C6.44047 115.109 6.54023 115.205 6.64 115.295C6.72926 115.401 6.82903 115.496 6.92879 115.586C7.01806 115.692 7.11782 115.788 7.21759 115.878C7.30685 115.984 7.40662 116.079 7.50639 116.169C7.59565 116.275 7.69541 116.371 7.79518 116.461C7.88444 116.567 7.98421 116.662 8.08398 116.752C8.17324 116.859 8.27301 116.954 8.37277 117.044C8.46204 117.15 8.5618 117.246 8.66157 117.336C8.75083 117.442 8.8506 117.537 8.95037 117.627C9.03963 117.733 9.13939 117.829 9.23916 117.919C9.32842 118.025 9.42819 118.12 9.52796 118.21C9.61722 118.316 9.71699 118.412 9.81675 118.502C9.90602 118.608 10.0058 118.703 10.1055 118.793C10.1948 118.899 10.2946 118.995 10.3943 119.085C10.4836 119.191 10.5834 119.286 10.6831 119.377C10.7724 119.483 10.8722 119.578 10.9719 119.668C11.0612 119.774 11.161 119.87 11.2607 119.96C11.35 120.066 11.4498 120.161 11.5495 120.251C11.6388 120.357 11.7386 120.453 11.8383 120.543C11.9276 120.649 12.0274 120.744 12.1271 120.834C12.2164 120.94 12.3162 121.036 12.4159 121.126C12.5052 121.232 12.6049 121.327 12.7047 121.417C12.794 121.524 12.8937 121.619 12.9935 121.709C13.0828 121.815 13.1825 121.911 13.2823 122.001C13.3716 122.107 13.4713 122.202 13.5711 122.292C13.6604 122.398 13.7601 122.494 13.8599 122.584C13.9492 122.69 14.0489 122.785 14.1487 122.875C14.238 122.981 14.3377 123.077 14.4375 123.167C14.5268 123.273 14.6265 123.368 14.7263 123.458C14.8155 123.564 14.9153 123.66 15.0151 123.75C15.1043 123.856 15.2041 123.951 15.3039 124.042C15.3931 124.148 15.4929 124.243 15.5927 124.333C16.0757 124.884 16.7164 125.256 17.4462 125.377C17.5775 125.399 17.7088 125.409 17.84 125.409C17.8453 125.409 33.6503 125.34 41.5528 125.309C41.6998 125.309 41.8468 125.293 41.9939 125.266C42.9705 125.081 43.7739 124.413 44.1362 123.48C44.6718 122.107 44.131 120.617 43.5061 119.758C43.4641 119.705 43.4221 119.652 43.3801 119.599C41.369 117.277 40.4711 114.849 40.3609 112.241C40.3976 112.278 40.4344 112.31 40.4711 112.342C40.5604 112.448 40.6549 112.543 40.7599 112.634C40.8492 112.74 40.9437 112.835 41.0487 112.925C41.138 113.031 41.2325 113.127 41.3375 113.217C41.4268 113.323 41.5213 113.418 41.6263 113.508C41.7156 113.614 41.8101 113.71 41.9151 113.8C42.0044 113.906 42.0989 114.001 42.2039 114.091C42.2932 114.197 42.3877 114.293 42.4927 114.383C42.582 114.489 42.6765 114.584 42.7815 114.674C42.8708 114.78 42.9653 114.876 43.0703 114.966C43.1596 115.072 43.2541 115.167 43.3591 115.258C43.4483 115.364 43.5429 115.459 43.6479 115.549C43.7371 115.655 43.8317 115.751 43.9367 115.841C44.0259 115.947 44.1205 116.042 44.2255 116.132C44.3147 116.238 44.4093 116.334 44.5143 116.424C44.6035 116.53 44.698 116.625 44.8031 116.715C44.8923 116.821 44.9868 116.917 45.0919 117.007C45.1811 117.113 45.2756 117.208 45.3807 117.299C45.4699 117.405 45.5644 117.5 45.6695 117.59C45.7587 117.696 45.8532 117.792 45.9582 117.882C46.0475 117.988 46.142 118.083 46.247 118.173C46.3363 118.279 46.4308 118.375 46.5358 118.465C46.6251 118.571 46.7196 118.666 46.8246 118.756C46.9139 118.862 47.0084 118.958 47.1134 119.048C47.2027 119.154 47.2972 119.249 47.4022 119.339C47.4915 119.445 47.586 119.541 47.691 119.631C47.7803 119.737 47.8748 119.832 47.9798 119.923C48.0691 120.029 48.1636 120.124 48.2686 120.214C48.3579 120.32 48.4524 120.416 48.5574 120.506C48.6467 120.612 48.7412 120.707 48.8462 120.797C48.9355 120.903 49.03 120.999 49.135 121.089C49.2243 121.195 49.3188 121.29 49.4238 121.38C49.5131 121.486 49.6076 121.582 49.7126 121.672C49.8019 121.778 49.8964 121.873 50.0014 121.964C50.0907 122.07 50.1852 122.165 50.2902 122.255C50.3795 122.361 50.474 122.457 50.579 122.547C50.6682 122.653 50.7628 122.748 50.8678 122.838C50.957 122.944 51.0516 123.04 51.1566 123.13C51.2458 123.236 51.3404 123.331 51.4454 123.421C51.5346 123.527 51.6291 123.623 51.7342 123.713C51.8234 123.819 51.9179 123.914 52.023 124.004C52.1122 124.11 52.2067 124.206 52.3118 124.296C52.7318 124.778 53.2989 125.118 53.9395 125.24C54.0865 125.266 54.2388 125.282 54.3911 125.282C54.3963 125.282 54.3963 125.282 54.4016 125.282C63.8478 125.25 73.2888 125.218 82.7351 125.187C82.9031 125.187 83.0711 125.165 83.2339 125.134C83.5595 125.065 83.8588 124.937 84.1266 124.773C84.3996 124.937 84.6989 125.059 85.0245 125.128C85.1872 125.16 85.3553 125.181 85.518 125.181C85.5233 125.181 85.5233 125.181 85.5233 125.181C93.4258 125.155 101.328 125.134 109.231 125.112C109.409 125.112 109.588 125.091 109.761 125.054C110.67 124.847 111.405 124.222 111.772 123.342C112.318 122.038 111.919 120.532 111.378 119.562C109.084 114.404 109.131 108.09 109.173 101.983C109.178 101.294 109.184 100.605 109.184 99.9001L109.079 91.1214C109.068 90.3263 109.168 89.9817 109.215 89.8704C109.514 89.7326 110.402 89.6371 111.063 89.5682L111.672 89.5046C121.639 88.3861 129.814 85.5764 135.963 81.309L135.984 83.2121C136 83.9914 136.026 84.776 136.047 85.5764C136.231 92.134 136.425 98.9088 134.204 104.608C133.784 105.472 133.327 107.089 133.931 108.456C134.115 108.87 134.382 109.225 134.703 109.506C134.792 109.612 134.886 109.707 134.991 109.797C135.081 109.903 135.175 109.999 135.28 110.089C135.369 110.195 135.464 110.29 135.569 110.381C135.658 110.487 135.753 110.582 135.858 110.672C135.947 110.778 136.042 110.874 136.147 110.964C136.236 111.07 136.33 111.165 136.435 111.255C136.525 111.361 136.619 111.457 136.724 111.547C136.813 111.653 136.908 111.748 137.013 111.838C137.102 111.944 137.197 112.04 137.302 112.13C137.391 112.236 137.486 112.331 137.591 112.421C137.68 112.527 137.774 112.623 137.879 112.713C137.969 112.819 138.063 112.914 138.168 113.005C138.257 113.111 138.352 113.206 138.457 113.296C138.546 113.402 138.641 113.498 138.746 113.588C138.835 113.694 138.93 113.789 139.035 113.879C139.124 113.985 139.218 114.081 139.323 114.171C139.413 114.277 139.507 114.372 139.612 114.462C139.701 114.568 139.796 114.664 139.901 114.754C139.99 114.86 140.085 114.955 140.19 115.046C140.279 115.152 140.373 115.247 140.478 115.337C140.568 115.443 140.662 115.539 140.767 115.629C140.857 115.735 140.951 115.83 141.056 115.92C141.145 116.026 141.24 116.122 141.345 116.212C141.434 116.318 141.529 116.413 141.634 116.503C141.723 116.609 141.817 116.705 141.922 116.795C142.012 116.901 142.106 116.996 142.211 117.086C142.301 117.192 142.395 117.288 142.5 117.378C142.589 117.484 142.684 117.579 142.789 117.67C142.878 117.776 142.973 117.871 143.078 117.961C143.167 118.067 143.261 118.163 143.366 118.253C143.456 118.359 143.55 118.454 143.655 118.544C143.745 118.65 143.839 118.746 143.944 118.836C144.033 118.942 144.128 119.037 144.233 119.127C144.322 119.233 144.417 119.329 144.522 119.419C144.611 119.525 144.705 119.62 144.81 119.711C144.9 119.817 144.994 119.912 145.099 120.002C145.189 120.108 145.283 120.204 145.388 120.294C145.477 120.4 145.572 120.495 145.677 120.585C145.766 120.691 145.861 120.787 145.966 120.877C146.055 120.983 146.149 121.078 146.254 121.168C146.344 121.274 146.438 121.37 146.543 121.46C146.632 121.566 146.727 121.661 146.832 121.751C146.921 121.857 147.016 121.953 147.121 122.043C147.21 122.149 147.305 122.244 147.41 122.335C147.499 122.441 147.593 122.536 147.698 122.626C147.788 122.732 147.882 122.828 147.987 122.918C148.076 123.024 148.171 123.119 148.276 123.209C148.365 123.315 148.46 123.411 148.565 123.501C148.654 123.607 148.749 123.702 148.854 123.792C148.943 123.898 149.037 123.994 149.142 124.084C149.531 124.529 150.04 124.847 150.623 124.985C150.807 125.028 150.996 125.049 151.185 125.049C151.185 125.049 163.335 125.028 169.405 125.017C169.453 125.017 169.5 125.017 169.547 125.012C174.472 124.715 179.371 123.989 184.108 123.278C188.529 122.621 193.097 121.937 197.602 121.63C198.973 121.645 202.622 122.112 204.56 124.026C204.623 124.095 204.686 124.158 204.754 124.222C205.494 125.038 206.492 125.526 207.463 125.526C209.018 125.526 210.22 124.386 210.393 122.759C210.425 122.441 210.399 122.112 210.309 121.804C208.598 115.904 208.214 109.182 208.288 102.514C209.039 103.319 209.826 104.093 210.656 104.83C210.687 104.862 210.719 104.894 210.75 104.926C210.845 105.021 210.939 105.122 211.039 105.217C211.134 105.313 211.228 105.413 211.328 105.509C211.423 105.604 211.517 105.705 211.617 105.8C211.711 105.896 211.806 105.996 211.906 106.092C212 106.187 212.095 106.288 212.194 106.383C212.289 106.479 212.383 106.58 212.483 106.675C212.578 106.77 212.672 106.871 212.772 106.967C212.867 107.062 212.961 107.163 213.061 107.258C213.155 107.354 213.25 107.454 213.35 107.55C213.444 107.645 213.539 107.746 213.638 107.841C213.733 107.937 213.827 108.037 213.927 108.133C214.022 108.228 214.116 108.329 214.216 108.424C214.31 108.52 214.405 108.621 214.505 108.716C214.599 108.811 214.694 108.912 214.794 109.008C214.888 109.103 214.983 109.204 215.082 109.299C215.177 109.394 215.271 109.495 215.371 109.591C215.466 109.686 215.56 109.787 215.66 109.882C215.754 109.978 215.849 110.078 215.949 110.174C216.043 110.269 216.138 110.37 216.238 110.465C216.332 110.561 216.427 110.661 216.526 110.757C216.621 110.852 216.715 110.953 216.815 111.048C216.91 111.144 217.004 111.245 217.104 111.34C217.198 111.435 217.293 111.536 217.393 111.632C217.487 111.727 217.582 111.828 217.682 111.923C217.776 112.019 217.871 112.119 217.97 112.215C218.065 112.31 218.159 112.411 218.259 112.506C218.354 112.602 218.448 112.702 218.548 112.798C218.642 112.893 218.737 112.994 218.837 113.089C218.931 113.185 219.026 113.286 219.126 113.381C219.22 113.476 219.315 113.577 219.414 113.673C219.509 113.768 219.603 113.869 219.703 113.964C219.798 114.059 219.892 114.16 219.992 114.256C220.086 114.351 220.181 114.452 220.281 114.547C220.375 114.643 220.47 114.743 220.569 114.839C220.664 114.934 220.759 115.035 220.858 115.13C220.953 115.226 221.047 115.326 221.147 115.422C221.242 115.517 221.336 115.618 221.436 115.713C221.53 115.809 221.625 115.91 221.725 116.005C221.819 116.1 221.914 116.201 222.013 116.297C222.103 116.387 222.187 116.477 222.276 116.567C224.765 119.419 227.705 121.895 231.181 123.792C233.318 125.017 236.558 126.469 239.893 126.469C240.255 126.469 240.738 126.422 241.562 126.337C242.261 126.268 243.127 126.178 243.6 126.173C244.114 126.173 245.002 126.273 245.653 126.348C246.335 126.427 246.708 126.469 247.023 126.469C250.373 126.469 253.618 125.006 255.755 123.777C255.771 123.766 255.782 123.761 255.797 123.75C260.287 121.046 263.873 117.458 266.751 113.402C266.803 113.455 266.861 113.514 266.919 113.561C267.008 113.662 267.102 113.763 267.207 113.853C267.297 113.959 267.391 114.054 267.496 114.144C267.585 114.25 267.68 114.346 267.785 114.436C267.874 114.537 267.969 114.637 268.074 114.727C268.163 114.833 268.258 114.929 268.363 115.019C268.452 115.125 268.546 115.22 268.651 115.311C268.741 115.411 268.835 115.512 268.94 115.602C269.029 115.708 269.124 115.804 269.229 115.894C269.318 116 269.413 116.095 269.518 116.185C269.607 116.286 269.702 116.387 269.807 116.477C269.896 116.583 269.99 116.678 270.095 116.768C270.185 116.874 270.279 116.97 270.384 117.06C270.473 117.166 270.568 117.261 270.673 117.352C270.762 117.458 270.857 117.553 270.962 117.643C271.051 117.749 271.146 117.845 271.251 117.935C271.34 118.041 271.434 118.136 271.539 118.226C271.629 118.332 271.723 118.428 271.828 118.518C271.917 118.618 272.012 118.719 272.117 118.809C272.206 118.915 272.301 119.011 272.406 119.101C272.495 119.207 272.589 119.302 272.694 119.392C272.784 119.493 272.878 119.594 272.983 119.684C273.073 119.79 273.167 119.885 273.272 119.976C273.361 120.082 273.456 120.177 273.561 120.267C273.65 120.368 273.745 120.469 273.85 120.559C273.939 120.665 274.033 120.76 274.138 120.85C274.228 120.956 274.322 121.052 274.427 121.142C274.517 121.243 274.611 121.343 274.716 121.433C274.805 121.539 274.9 121.635 275.005 121.725C275.094 121.831 275.189 121.926 275.294 122.017C275.383 122.123 275.477 122.218 275.582 122.308C275.672 122.414 275.766 122.51 275.871 122.6C275.961 122.706 276.055 122.801 276.16 122.891C276.249 122.997 276.344 123.093 276.449 123.183C276.538 123.289 276.633 123.384 276.738 123.474C276.827 123.575 276.921 123.676 277.026 123.766C277.116 123.872 277.21 123.967 277.315 124.057C277.693 124.487 278.187 124.8 278.743 124.943C278.938 124.99 279.137 125.017 279.342 125.017C287.245 125.022 295.152 125.028 303.055 125.038C303.254 125.038 303.449 125.012 303.643 124.964C304.504 124.752 305.208 124.148 305.575 123.31C306.184 121.932 305.733 120.272 305.313 119.387C304.058 116.053 303.548 112.39 303.375 108.621C303.449 108.7 303.533 108.774 303.611 108.854C303.622 108.864 303.632 108.88 303.643 108.891C303.727 108.981 303.816 109.055 303.9 109.145C303.911 109.156 303.921 109.172 303.932 109.182C304.016 109.273 304.105 109.347 304.189 109.437C304.2 109.448 304.21 109.463 304.221 109.474C304.305 109.564 304.394 109.638 304.478 109.728C304.488 109.739 304.499 109.755 304.509 109.766C304.593 109.856 304.683 109.93 304.767 110.02C304.777 110.031 304.788 110.047 304.798 110.057C304.882 110.147 304.971 110.221 305.055 110.312C305.066 110.322 305.076 110.338 305.087 110.349C305.171 110.439 305.26 110.513 305.344 110.603C305.355 110.614 305.365 110.63 305.376 110.64C305.46 110.73 305.549 110.805 305.633 110.895C305.644 110.905 305.654 110.921 305.665 110.932C305.749 111.022 305.838 111.096 305.917 111.181C305.927 111.192 305.938 111.207 305.948 111.218C306.032 111.308 306.121 111.382 306.205 111.473C306.216 111.483 306.226 111.499 306.237 111.51C306.321 111.6 306.41 111.674 306.494 111.764C306.505 111.775 306.515 111.791 306.526 111.801C306.61 111.891 306.699 111.966 306.778 112.05C306.788 112.061 306.799 112.077 306.809 112.087C306.893 112.178 306.982 112.252 307.066 112.342C307.077 112.353 307.087 112.368 307.098 112.379C307.182 112.469 307.271 112.543 307.355 112.634C307.366 112.644 307.376 112.66 307.387 112.671C307.471 112.761 307.56 112.835 307.644 112.92C307.655 112.93 307.665 112.946 307.676 112.957C307.76 113.047 307.849 113.121 307.933 113.211C307.943 113.222 307.954 113.238 307.964 113.248C308.048 113.339 308.138 113.413 308.222 113.503C308.232 113.513 308.243 113.529 308.253 113.54C308.337 113.63 308.426 113.704 308.51 113.789C308.521 113.8 308.531 113.816 308.542 113.826C308.626 113.916 308.715 113.991 308.799 114.081C308.81 114.091 308.82 114.107 308.831 114.118C308.915 114.208 309.004 114.282 309.088 114.372C309.099 114.383 309.109 114.399 309.12 114.409C309.204 114.5 309.293 114.574 309.377 114.664C309.387 114.674 309.398 114.69 309.408 114.701C309.492 114.791 309.582 114.865 309.666 114.955C309.676 114.966 309.687 114.982 309.697 114.992C309.781 115.083 309.87 115.157 309.954 115.247C309.965 115.258 309.975 115.273 309.986 115.284C310.07 115.374 310.159 115.448 310.243 115.539C310.254 115.549 310.264 115.565 310.275 115.576C310.359 115.666 310.448 115.74 310.532 115.83C310.543 115.841 310.553 115.857 310.564 115.867C310.648 115.957 310.737 116.032 310.816 116.116C310.826 116.127 310.837 116.143 310.847 116.153C310.931 116.244 311.02 116.318 311.104 116.408C311.115 116.419 311.125 116.434 311.136 116.445C311.22 116.535 311.309 116.609 311.393 116.699C311.404 116.71 311.414 116.726 311.425 116.737C311.509 116.827 311.598 116.901 311.677 116.986C311.687 116.996 311.698 117.012 311.708 117.023C311.792 117.113 311.881 117.187 311.966 117.277C311.976 117.288 311.987 117.304 311.997 117.314C312.081 117.405 312.17 117.479 312.254 117.569C312.265 117.579 312.275 117.595 312.286 117.606C312.37 117.696 312.459 117.77 312.538 117.855C312.548 117.866 312.559 117.882 312.569 117.892C312.653 117.982 312.743 118.057 312.827 118.147C312.837 118.157 312.848 118.173 312.858 118.184C312.942 118.274 313.031 118.348 313.115 118.438C313.126 118.449 313.136 118.465 313.147 118.475C313.231 118.565 313.32 118.64 313.399 118.725C313.409 118.735 313.42 118.751 313.43 118.762C313.514 118.852 313.604 118.926 313.688 119.016C313.698 119.027 313.709 119.043 313.719 119.053C313.803 119.143 313.893 119.218 313.977 119.302C313.987 119.313 313.998 119.329 314.008 119.339C314.092 119.43 314.181 119.504 314.265 119.594C314.276 119.604 314.286 119.62 314.297 119.631C314.381 119.721 314.47 119.795 314.554 119.885C314.565 119.896 314.575 119.912 314.586 119.923C314.67 120.013 314.759 120.087 314.843 120.177C314.853 120.188 314.864 120.204 314.874 120.214C314.958 120.304 315.048 120.378 315.132 120.469C315.142 120.479 315.153 120.495 315.163 120.506C315.247 120.596 315.337 120.67 315.421 120.76C315.431 120.771 315.442 120.787 315.452 120.797C315.536 120.887 315.625 120.962 315.704 121.046C315.715 121.057 315.725 121.073 315.736 121.084C315.82 121.174 315.909 121.248 315.993 121.338C316.003 121.349 316.014 121.365 316.024 121.375C318.13 123.665 320.881 124.932 323.979 125.028C324.006 125.028 335.431 125.049 335.431 125.049C335.621 125.049 335.815 125.028 335.999 124.98C336.592 124.837 337.112 124.508 337.5 124.047C337.516 124.063 337.532 124.079 337.548 124.089C337.931 124.529 338.43 124.847 339.002 124.985C339.191 125.033 339.38 125.054 339.574 125.054C347.477 125.07 355.379 125.081 363.287 125.102H363.292C363.476 125.102 363.66 125.081 363.838 125.038C364.726 124.831 365.451 124.222 365.823 123.363C366.354 122.149 366.07 120.606 365.534 119.546C363.896 115.433 363.586 110.72 363.613 105.938C363.628 105.954 363.644 105.97 363.66 105.986C363.754 106.087 363.849 106.177 363.949 106.277C364.043 106.378 364.143 106.474 364.238 106.569C364.332 106.67 364.432 106.765 364.526 106.861C364.621 106.961 364.715 107.051 364.815 107.152C364.91 107.253 365.009 107.348 365.104 107.444C365.198 107.544 365.298 107.64 365.393 107.735C365.487 107.836 365.587 107.931 365.682 108.027C365.776 108.128 365.876 108.223 365.97 108.318C366.065 108.419 366.165 108.515 366.259 108.61C366.354 108.711 366.453 108.806 366.548 108.901C366.642 109.002 366.742 109.098 366.837 109.193C366.931 109.294 367.026 109.384 367.126 109.485C367.22 109.585 367.32 109.681 367.414 109.776C367.509 109.877 367.609 109.972 367.703 110.068C367.798 110.168 367.892 110.259 367.992 110.359C368.086 110.46 368.186 110.555 368.281 110.651C368.375 110.752 368.475 110.847 368.569 110.942C368.664 111.043 368.759 111.133 368.858 111.234C368.953 111.335 369.053 111.43 369.147 111.526C369.242 111.626 369.341 111.722 369.436 111.817C369.53 111.918 369.625 112.008 369.725 112.109C369.819 112.209 369.919 112.305 370.013 112.4C370.108 112.501 370.208 112.596 370.302 112.692C370.397 112.793 370.497 112.888 370.591 112.983C370.686 113.084 370.785 113.18 370.88 113.275C370.974 113.376 371.074 113.471 371.169 113.566C371.263 113.667 371.363 113.763 371.457 113.858C371.552 113.959 371.652 114.054 371.746 114.15C371.841 114.25 371.935 114.34 372.035 114.441C372.13 114.542 372.229 114.637 372.324 114.733C372.418 114.833 372.518 114.929 372.613 115.024C372.707 115.125 372.802 115.215 372.901 115.316C372.996 115.417 373.096 115.512 373.19 115.607C373.285 115.708 373.384 115.804 373.479 115.899C373.574 116 373.668 116.09 373.768 116.191C373.862 116.291 373.962 116.387 374.057 116.482C374.151 116.583 374.251 116.678 374.345 116.774C374.44 116.874 374.534 116.965 374.634 117.065C374.729 117.166 374.828 117.261 374.923 117.357C375.018 117.458 375.117 117.553 375.212 117.648C375.306 117.749 375.406 117.845 375.501 117.94C375.595 118.041 375.695 118.136 375.789 118.232C375.884 118.332 375.984 118.428 376.078 118.523C376.173 118.624 376.272 118.719 376.367 118.815C376.461 118.915 376.561 119.011 376.656 119.106C376.75 119.207 376.845 119.297 376.945 119.398C377.039 119.498 377.139 119.594 377.233 119.689C381.14 123.755 386.218 126.289 392.676 126.358H392.923C402.107 126.358 408.187 120.776 411.873 113.566C411.92 113.614 411.973 113.662 412.02 113.704C412.062 113.752 412.099 113.794 412.141 113.842C412.193 113.895 412.251 113.948 412.309 113.996C412.351 114.044 412.388 114.086 412.43 114.134C412.482 114.187 412.54 114.24 412.598 114.287C412.634 114.335 412.677 114.378 412.719 114.425C412.771 114.478 412.829 114.531 412.887 114.579C412.929 114.627 412.965 114.669 413.007 114.717C413.06 114.77 413.118 114.823 413.175 114.871C413.212 114.918 413.254 114.961 413.296 115.008C413.349 115.061 413.406 115.114 413.464 115.162C413.501 115.21 413.543 115.252 413.585 115.3C413.637 115.353 413.695 115.406 413.753 115.454C413.795 115.501 413.832 115.544 413.874 115.592C413.926 115.645 413.984 115.698 414.042 115.745C414.078 115.793 414.12 115.835 414.162 115.883C414.215 115.936 414.273 115.989 414.331 116.037C414.367 116.085 414.409 116.127 414.451 116.175C414.504 116.228 414.562 116.281 414.619 116.328C414.656 116.376 414.698 116.419 414.74 116.466C414.793 116.519 414.85 116.572 414.908 116.62C414.95 116.668 414.987 116.71 415.029 116.758C415.081 116.811 415.139 116.864 415.197 116.912C415.234 116.959 415.276 117.002 415.318 117.049C415.37 117.102 415.428 117.155 415.486 117.203C415.528 117.251 415.564 117.293 415.606 117.341C415.659 117.394 415.717 117.447 415.775 117.495C415.817 117.542 415.853 117.585 415.895 117.632C415.948 117.686 416.006 117.739 416.063 117.786C416.1 117.834 416.142 117.876 416.184 117.924C416.237 117.977 416.294 118.03 416.352 118.078C416.394 118.125 416.431 118.168 416.473 118.216C416.525 118.269 416.583 118.322 416.641 118.369C416.678 118.417 416.72 118.459 416.762 118.507C416.814 118.56 416.872 118.613 416.93 118.661C416.972 118.709 417.008 118.751 417.05 118.799C417.103 118.852 417.161 118.905 417.218 118.952C417.26 119 417.297 119.043 417.339 119.09C417.392 119.143 417.45 119.196 417.507 119.244C417.544 119.292 417.586 119.334 417.628 119.382C417.681 119.435 417.738 119.488 417.796 119.536C417.838 119.583 417.875 119.626 417.917 119.673C417.969 119.726 418.027 119.779 418.085 119.827C418.122 119.875 418.164 119.917 418.206 119.965C418.258 120.018 418.316 120.071 418.374 120.119C418.41 120.166 418.452 120.209 418.494 120.257C418.547 120.31 418.605 120.363 418.662 120.41C418.704 120.458 418.741 120.5 418.783 120.548C418.836 120.601 418.893 120.654 418.951 120.702C418.988 120.75 419.03 120.792 419.072 120.84C419.125 120.893 419.182 120.946 419.24 120.993C419.277 121.041 419.319 121.084 419.361 121.131C419.413 121.184 419.471 121.237 419.529 121.285C419.566 121.333 419.608 121.375 419.65 121.423C419.702 121.476 419.76 121.529 419.818 121.577C419.86 121.624 419.896 121.667 419.938 121.714C419.991 121.767 420.049 121.82 420.106 121.868C420.143 121.916 420.185 121.958 420.227 122.006C420.28 122.059 420.337 122.112 420.395 122.16C420.437 122.207 420.474 122.25 420.516 122.297C420.569 122.351 420.626 122.404 420.684 122.451C420.726 122.499 420.763 122.541 420.805 122.589C420.857 122.642 420.915 122.695 420.973 122.743C421.01 122.79 421.052 122.833 421.094 122.881C421.146 122.934 421.204 122.987 421.262 123.034C421.304 123.082 421.34 123.124 421.382 123.172C421.435 123.225 421.493 123.278 421.55 123.326C421.587 123.374 421.629 123.416 421.671 123.464C421.724 123.517 421.781 123.57 421.839 123.617C421.881 123.665 421.918 123.708 421.96 123.755C422.012 123.808 422.07 123.861 422.128 123.909C422.17 123.957 422.207 123.999 422.249 124.047C422.301 124.1 422.359 124.153 422.417 124.201C422.454 124.248 422.496 124.291 422.538 124.338C422.59 124.391 422.648 124.444 422.706 124.492C422.748 124.54 422.784 124.582 422.826 124.63C422.879 124.683 422.937 124.736 422.994 124.784C423.031 124.831 423.073 124.874 423.115 124.922C423.661 125.478 424.423 125.796 425.21 125.802H425.215C425.819 125.802 426.208 125.6 426.617 125.388C430.892 123.177 433.533 122.716 435.003 122.716H435.129C439.24 122.796 443.483 123.448 447.589 124.084C451.386 124.672 455.313 125.277 459.23 125.452C459.614 125.468 459.987 125.478 460.365 125.478C466.687 125.478 472.646 123.082 476.71 118.899C480.412 115.093 482.313 110.158 482.213 104.634C482.098 96.4915 478.585 90.5913 473.738 85.8574ZM59.9255 73.6966C63.0707 68.4961 66.615 63.5131 70.1698 58.6625L70.4902 86.2285C70.4902 87.2516 70.5111 88.3065 70.5269 89.3827C70.5427 90.3899 70.5584 91.4236 70.5637 92.4679C66.9983 86.0111 63.475 79.7982 59.9255 73.6966ZM109.819 36.9649C110.15 39.149 110.318 41.1634 110.396 42.6955C110.586 46.3638 110.144 50.9652 108.816 55.1903L108.632 39.4458C108.616 38.4545 109.173 37.5692 109.819 36.9649ZM239.299 52.3223C239.294 53.531 239.289 54.7291 239.289 55.9059C239.289 57.1305 239.294 58.3762 239.294 59.6326C239.336 72.313 239.383 86.6844 234.18 98.0606C234.18 98.0659 234.174 98.0659 234.174 98.0659C233.061 90.2361 233.072 82.0035 233.082 74.3751C233.082 73.177 233.087 71.9896 233.082 70.8181C233.077 69.6094 233.072 68.3848 233.066 67.1496C232.988 54.4428 232.898 40.0396 238.118 28.6368C238.16 28.552 238.202 28.4725 238.244 28.3877C239.367 36.297 239.331 44.6198 239.299 52.3223ZM325.124 68.3954C325.103 68.3689 325.077 68.3477 325.051 68.3265C324.956 68.2258 324.856 68.1304 324.762 68.035C324.667 67.9342 324.568 67.8441 324.473 67.7434C324.378 67.6426 324.279 67.5525 324.184 67.4518C324.09 67.3511 323.99 67.2557 323.895 67.1602C323.801 67.0595 323.701 66.9694 323.607 66.8687C323.512 66.768 323.412 66.6779 323.318 66.5771C323.223 66.4764 323.124 66.3863 323.029 66.2855C322.935 66.1848 322.835 66.0947 322.74 65.994C322.646 65.8933 322.546 65.8032 322.451 65.7024C322.357 65.6017 322.257 65.5116 322.163 65.4109C322.068 65.3102 321.968 65.22 321.874 65.1193C321.779 65.0186 321.68 64.9232 321.585 64.8277C321.491 64.727 321.391 64.6369 321.296 64.5362C321.291 64.5309 321.291 64.5309 321.286 64.5256C322.661 63.8736 323.958 63.0996 325.171 62.209L325.124 68.3954ZM395.338 54.1724L395.065 77.7467C395.065 77.7785 395.065 77.805 395.065 77.8368C395.154 81.5529 394.104 86.4935 391.547 89.1388C391.264 89.4304 390.97 89.6901 390.665 89.9075C390.455 88.1687 390.392 86.4882 390.465 84.9827C390.465 84.9509 390.471 84.9191 390.471 84.8873L390.849 52.9956C390.87 51.9035 390.875 50.7638 390.88 49.5975C390.896 44.9696 390.917 39.8222 392.272 35.5813C394.509 41.8844 395.449 47.8005 395.338 54.1724ZM445.331 102.694C443.835 98.9088 442.317 95.0602 440.306 91.9166C441.546 92.839 442.858 93.7455 444.234 94.6414C445.725 95.6062 447.39 96.5551 449.159 97.5623C449.17 97.5676 449.175 97.5729 449.186 97.5782C449.196 97.7532 449.207 97.9281 449.207 98.103C449.222 99.6881 448.723 101.045 447.768 102.015C447.174 102.625 446.429 103.054 445.568 103.303C445.489 103.097 445.41 102.895 445.331 102.694ZM442.816 50.3079C444.749 55.1213 446.718 60.0302 449.648 63.7304C448.114 62.7232 446.571 61.7531 445.053 60.8042C443.998 60.1415 442.953 59.4895 441.924 58.8268C441.241 56.9555 440.868 54.9093 440.894 52.6351C440.91 50.9652 441.399 49.571 442.176 48.7175C442.391 49.2477 442.606 49.7778 442.816 50.3079ZM416.877 69.074C417.36 69.6359 417.859 70.1925 418.384 70.7438C417.891 70.5689 417.376 70.4258 416.84 70.3144L416.851 69.4132C416.856 69.3019 416.867 69.1906 416.877 69.074Z" fill="#242223"/>
<path d="M33.7235 88.7334C31.8122 85.2983 30.8618 83.6125 28.961 80.2993C24.7288 88.6698 19.9348 98.3285 27.0287 106.524C27.4172 107.06 27.6168 108.024 27.0392 108.136C19.1367 108.167 11.2342 108.199 3.33691 108.236C2.75932 108.141 2.47052 107.266 2.85383 106.779C11.733 97.2683 20.5544 89.4703 27.8951 78.3644C22.8595 69.7182 17.6927 61.194 12.3158 52.7651C8.22018 46.5257 5.10644 42.4703 3.03761 40.106C2.65955 39.7402 2.47577 38.9239 3.03761 38.6429C12.2581 35.6955 21.4995 32.8805 30.7935 30.1982C31.3659 30.1451 31.1821 31.1842 30.804 31.8362C29.7749 33.7605 30.4732 39.454 34.6266 46.0804C37.294 50.3266 38.633 52.5107 41.3162 56.9902C45.4328 48.3758 51.1195 36.8617 43.5373 28.4276C43.1487 27.9558 42.9492 26.9857 43.5215 26.7153C51.319 24.6585 59.148 22.7235 67.0033 20.9159C67.5809 20.9053 67.8802 21.939 67.5021 22.6387C59.6101 35.054 49.9066 46.0539 42.3874 58.8509C48.3471 69.0556 54.0967 79.3557 59.6994 89.7566C62.5296 95.2114 65.2075 100.772 68.1637 106.158C68.5575 106.763 68.7623 107.865 68.1847 107.987C58.7385 108.019 49.2975 108.051 39.8512 108.083C39.2736 107.971 39.4574 106.964 39.8355 106.397C40.2713 100.083 36.7532 94.1035 33.7235 88.7334Z" fill="#EDE5D9"/>
<path d="M92.2014 85.1976C92.1856 91.9512 91.8128 99.6697 94.664 105.967C95.0578 106.614 95.2626 107.78 94.685 107.913C86.7825 107.934 78.88 107.955 70.9775 107.982C70.3999 107.86 70.5784 106.757 70.9565 106.137C73.6081 100.152 72.9518 92.5291 72.9413 86.226C72.768 71.3139 72.5947 56.4017 72.4215 41.4949C72.2902 35.4251 72.8363 27.7596 69.9851 22.0821C69.5965 21.552 69.3917 20.4917 69.9641 20.2373C77.8141 18.4667 85.6903 16.8233 93.5928 15.3125C112.617 11.7501 131.971 17.7722 132.171 40.5619C132.354 61.5491 114.953 70.2854 96.8693 72.3158C93.9971 72.6392 92.0491 72.549 92.0963 76.4189C92.1383 79.9282 92.1593 81.6829 92.2014 85.1976ZM91.9493 64.0248C91.9966 68.0271 93.9499 69.9355 96.7433 69.7129C109.424 68.7004 113.357 52.5796 112.842 42.571C112.359 33.1456 109.335 16.6908 96.1447 18.8749C94.0497 19.2195 91.4505 21.6792 91.482 24.6478C91.6395 37.7735 91.797 50.8991 91.9493 64.0248Z" fill="#EDE5D9"/>
<path d="M175.958 79.933C178.437 73.4921 181.094 64.8512 187.473 63.4888C189.794 62.9958 192.147 66.0174 191.963 70.6931C191.506 82.4457 190.057 96.2499 193.391 107.743C193.297 108.623 192.43 108.331 191.947 107.743C188.844 104.377 182.963 104.403 182.963 104.403C173.501 105.039 164.275 107.218 154.834 107.785C148.759 107.796 142.689 107.806 136.614 107.817C136.036 107.679 136.215 106.428 136.593 105.728C139.334 98.7998 138.756 90.5512 138.593 83.2568C138.431 66.4203 138.263 49.5892 138.1 32.7528C138.121 25.575 138.599 17.3105 135.653 10.5781C135.259 9.93132 135.054 8.70675 135.632 8.4894C143.577 7.43447 151.542 6.50147 159.518 5.7063C160.101 5.79112 159.917 7.10049 159.534 7.85326C156.798 15.0575 157.328 23.4811 157.486 31.0405C157.612 46.6842 157.743 62.3279 157.869 77.9716C158.048 84.2428 157.596 101.715 163.477 103.046C164.575 103.295 166.649 101.737 168.56 98.8422C172.131 93.048 173.947 86.3845 175.958 79.933Z" fill="#EDE5D9"/>
<path d="M228.972 108.909C227.969 108.92 225.889 109.206 225.307 109.206C222.802 109.206 220.098 108.167 217.782 106.842C201.247 97.8406 196.621 73.3281 196.548 56.3644C196.474 39.1887 200.995 14.4323 217.588 5.1235C219.924 3.7452 222.655 2.66376 225.196 2.63196C225.685 2.62666 227.617 2.91292 228.709 2.89701C229.728 2.88111 231.833 2.58425 232.416 2.58425C234.952 2.57895 237.688 3.62328 240.025 4.97507C256.255 14.8034 261.186 38.6056 261.128 56.1471C261.075 73.556 256.076 97.1196 239.951 106.842C237.636 108.173 234.937 109.212 232.432 109.212C231.959 109.206 230.043 108.904 228.972 108.909ZM230.416 105.951C232.826 105.061 234.947 102.097 236.396 99.1394C242.361 86.1198 241.731 69.8664 241.742 55.9138C241.752 41.9771 242.377 25.6602 236.423 12.6511C234.963 9.6825 233.109 7.31288 230.767 5.98759C230.473 5.83916 229.696 5.69603 228.914 5.40446C228.231 5.5582 227.549 5.71194 227.255 5.86037C224.818 6.76687 222.676 9.76201 221.216 12.7413C215.241 25.7768 215.913 42.0354 215.944 55.9986C215.976 69.9088 215.409 86.1569 221.342 99.1447C222.797 102.103 224.629 104.467 226.945 105.798C227.234 105.946 228.006 106.094 228.777 106.391C229.449 106.248 230.127 106.1 230.416 105.951Z" fill="#EDE5D9"/>
<path d="M265.132 2.64282C272.153 2.93969 275.665 3.12523 282.68 3.58643C284.434 3.55462 286.193 3.68714 286.871 3.72955C295.093 4.25436 304.004 5.81821 310.373 11.6336C314.784 15.5087 317.84 22.978 317.709 28.6768C317.425 40.9807 307.401 50.0351 295.33 49.5103C286.834 49.1392 286.902 52.0442 295.408 52.4047C308.866 52.9772 319.394 61.5916 318.937 76.0107C318.911 78.7779 318.901 80.1668 318.874 82.934C318.717 90.3238 318.139 98.6625 320.886 105.687C321.264 106.392 321.447 107.659 320.865 107.802C316.317 107.796 314.038 107.791 309.491 107.786C301.956 107.542 299.215 99.0124 299.478 92.651C299.52 86.719 299.541 83.7504 299.583 77.8184C298.916 69.9144 298.097 61.9945 292.279 56.036C290.835 54.6736 289.675 54.048 288.803 54.0109C287.348 53.9526 286.561 55.6702 286.545 58.4374C286.498 66.3414 286.451 74.2454 286.403 82.1547C286.267 89.7778 285.705 98.3285 288.483 105.586C288.866 106.312 289.05 107.621 288.467 107.765C280.564 107.754 272.657 107.749 264.754 107.743C264.177 107.595 264.371 106.27 264.759 105.538C267.605 98.2119 267.127 89.5763 267.064 81.8632C267.133 64.1202 267.201 46.372 267.264 28.629C267.39 20.8841 267.915 12.2379 265.111 4.8587C264.733 4.09533 264.544 2.76475 265.132 2.64282ZM286.645 40.9701C286.624 44.3151 287.979 46.7696 289.423 46.7696C296.674 46.7643 297.908 33.0608 298.291 27.1447C298.68 21.1014 296.842 9.79407 289.559 8.86636C288.094 8.68082 286.823 10.7112 286.802 14.2046C286.75 23.1265 286.697 32.0483 286.645 40.9701Z" fill="#EDE5D9"/>
<path d="M325.913 7.68628C333.873 8.67759 341.818 9.79615 349.741 11.0419C350.319 11.2699 350.114 12.4573 349.72 13.0776C346.764 19.5821 347.242 27.6716 347.258 34.6426C347.079 51.0603 346.901 67.4779 346.722 83.8956C346.554 91.0045 345.971 99.0728 348.702 105.811C349.08 106.489 349.258 107.708 348.681 107.846C340.778 107.83 332.87 107.814 324.968 107.798C324.39 107.655 324.595 106.394 324.989 105.694C327.856 98.7865 327.446 90.522 327.42 83.1905C327.583 66.317 327.746 49.4434 327.908 32.5699C328.076 25.1377 328.596 16.8626 325.897 9.78553C325.514 9.04337 325.33 7.75519 325.913 7.68628Z" fill="#EDE5D9"/>
<path d="M352.477 11.4778C360.405 12.7554 368.319 14.1602 376.205 15.6975C376.783 15.9414 376.573 17.0652 376.184 17.6377C373.317 23.6969 373.863 31.6699 373.727 38.1055C373.601 48.7449 373.475 59.3843 373.349 70.0237C372.897 78.9561 376.825 93.195 387.437 93.3593C394.924 93.4759 397.697 84.0717 397.539 77.774C397.629 69.9177 397.718 62.056 397.812 54.1997C398.038 41.2331 393.843 30.7793 387.537 19.8801C387.159 19.1698 386.98 17.9929 387.558 17.9876C395.439 19.6469 403.289 21.4334 411.113 23.3524C411.685 23.6121 411.48 24.6299 411.092 25.1335C403.048 33.9281 400.627 42.3623 399.729 54.4701C399.634 62.5331 399.545 70.5962 399.451 78.6592C399.414 91.5569 393.365 109.247 378.09 109.072C358.715 108.855 353.999 84.1247 354.063 68.7196C354.189 57.6455 354.309 46.5767 354.435 35.5026C354.609 28.3248 355.113 20.3254 352.456 13.4975C352.072 12.766 351.894 11.5202 352.477 11.4778Z" fill="#EDE5D9"/>
<path d="M443.416 106.012C448.226 106.166 451.681 102.847 451.633 98.0711C451.528 87.6067 438.27 82.5388 430.84 77.72C418.989 70.0334 410.64 60.1891 410.252 45.5421C409.958 34.415 417.482 24.3216 429.449 28.1013C437.96 30.789 445.952 35.0935 454.437 37.7123C458.733 39.0376 464.052 38.0197 464.146 38.0515C464.335 38.1152 464.613 38.3007 464.613 38.5923C463.017 41.2905 462.912 47.3816 462.912 51.0181C462.907 55.047 463.38 59.0865 463.374 63.0094C463.374 66.0469 461.915 67.7433 459 67.1071C444.088 63.8469 446.199 35.3639 430.856 30.7201C427.306 29.6439 423.783 32.5331 423.736 37.7812C423.489 63.1048 464.587 62.7496 465.086 89.8385C465.301 101.395 455.503 108.631 444.655 108.143C436.637 107.783 428.593 105.562 420.496 105.408C416.096 105.323 410.635 108.493 410.54 108.493C410.346 108.493 410.057 108.371 410.063 108.016C411.743 104.109 411.916 96.8095 411.963 92.4413C412.016 87.6014 411.585 82.8462 411.633 78.1176C411.669 74.4545 413.318 72.1485 416.112 72.6839C429.601 75.2656 427.558 105.509 443.416 106.012Z" fill="#EDE5D9"/>
<path d="M65 161.778V149.172H69.4957C70.3915 149.172 71.1303 149.324 71.7122 149.628C72.294 149.927 72.7273 150.332 73.0119 150.84C73.2966 151.345 73.4389 151.905 73.4389 152.521C73.4389 153.062 73.3405 153.51 73.1438 153.863C72.9512 154.216 72.6959 154.495 72.3777 154.7C72.0638 154.905 71.7226 155.057 71.3543 155.155V155.278C71.7478 155.303 72.1433 155.438 72.541 155.685C72.9387 155.931 73.2714 156.284 73.5393 156.743C73.8072 157.203 73.9412 157.765 73.9412 158.43C73.9412 159.062 73.7947 159.63 73.5017 160.135C73.2087 160.64 72.7461 161.04 72.114 161.335C71.4819 161.631 70.6594 161.778 69.6464 161.778H65ZM66.5572 160.424H69.6464C70.6636 160.424 71.3857 160.231 71.8126 159.846C72.2438 159.456 72.4594 158.984 72.4594 158.43C72.4594 158.003 72.3484 157.609 72.1266 157.248C71.9047 156.883 71.5887 156.592 71.1785 156.374C70.7682 156.152 70.2827 156.042 69.7218 156.042H66.5572V160.424ZM66.5572 154.712H69.4455C69.9143 154.712 70.3371 154.622 70.7138 154.441C71.0947 154.261 71.3961 154.006 71.618 153.678C71.844 153.35 71.9571 152.964 71.9571 152.521C71.9571 151.967 71.7603 151.497 71.3668 151.111C70.9734 150.721 70.3496 150.527 69.4957 150.527H66.5572V154.712Z" fill="black"/>
<path d="M86.9721 149.172H88.5293V157.519C88.5293 158.381 88.3221 159.15 87.9077 159.827C87.4974 160.5 86.9177 161.032 86.1684 161.421C85.4191 161.807 84.5401 162 83.5313 162C82.5224 162 81.6434 161.807 80.8941 161.421C80.1448 161.032 79.563 160.5 79.1486 159.827C78.7383 159.15 78.5332 158.381 78.5332 157.519V149.172H80.0904V157.396C80.0904 158.011 80.2285 158.559 80.5048 159.039C80.7811 159.515 81.1746 159.891 81.6852 160.166C82.2001 160.437 82.8155 160.572 83.5313 160.572C84.2471 160.572 84.8624 160.437 85.3773 160.166C85.8921 159.891 86.2856 159.515 86.5577 159.039C86.834 158.559 86.9721 158.011 86.9721 157.396V149.172Z" fill="black"/>
<path d="M95.2295 149.172V161.778H93.6723V149.172H95.2295Z" fill="black"/>
<path d="M100.385 161.778V149.172H101.942V160.424H107.92V161.778H100.385Z" fill="black"/>
<path d="M116.333 161.778H112.364V149.172H116.508C117.756 149.172 118.823 149.425 119.711 149.929C120.598 150.43 121.278 151.15 121.751 152.09C122.224 153.026 122.461 154.146 122.461 155.451C122.461 156.764 122.222 157.894 121.745 158.842C121.268 159.786 120.573 160.512 119.66 161.021C118.748 161.526 117.639 161.778 116.333 161.778ZM113.921 160.424H116.232C117.295 160.424 118.176 160.223 118.875 159.821C119.575 159.419 120.096 158.846 120.439 158.104C120.782 157.361 120.954 156.477 120.954 155.451C120.954 154.433 120.784 153.557 120.445 152.822C120.106 152.084 119.6 151.518 118.926 151.124C118.252 150.726 117.412 150.527 116.408 150.527H113.921V160.424Z" fill="black"/>
<path d="M128.663 149.172V161.778H127.106V149.172H128.663Z" fill="black"/>
<path d="M144.016 149.172V161.778H142.509L135.502 151.881H135.376V161.778H133.819V149.172H135.326L142.358 159.095H142.484V149.172H144.016Z" fill="black"/>
<path d="M157.956 153.112C157.818 152.697 157.635 152.326 157.409 151.998C157.188 151.665 156.922 151.382 156.612 151.148C156.306 150.914 155.959 150.736 155.57 150.613C155.18 150.49 154.753 150.428 154.289 150.428C153.527 150.428 152.834 150.621 152.21 151.007C151.587 151.392 151.091 151.961 150.722 152.712C150.354 153.463 150.17 154.384 150.17 155.475C150.17 156.567 150.356 157.488 150.729 158.239C151.101 158.99 151.606 159.558 152.242 159.944C152.878 160.33 153.594 160.523 154.389 160.523C155.126 160.523 155.775 160.369 156.336 160.061C156.901 159.749 157.34 159.31 157.654 158.744C157.972 158.173 158.131 157.503 158.131 156.731L158.609 156.83H154.741V155.475H159.638V156.83C159.638 157.868 159.412 158.771 158.96 159.538C158.512 160.305 157.893 160.9 157.102 161.323C156.315 161.741 155.411 161.951 154.389 161.951C153.251 161.951 152.25 161.688 151.388 161.163C150.53 160.638 149.86 159.891 149.379 158.922C148.901 157.954 148.663 156.805 148.663 155.475C148.663 154.478 148.799 153.582 149.071 152.786C149.347 151.985 149.737 151.304 150.239 150.742C150.741 150.18 151.336 149.749 152.022 149.449C152.709 149.15 153.464 149 154.289 149C154.967 149 155.599 149.101 156.185 149.302C156.775 149.499 157.301 149.78 157.761 150.145C158.226 150.506 158.613 150.939 158.923 151.444C159.232 151.944 159.446 152.5 159.563 153.112H157.956Z" fill="black"/>
<path d="M170.642 150.527V149.172H180.286V150.527H176.243V161.778H174.685V150.527H170.642Z" fill="black"/>
<path d="M184.723 161.778V149.172H186.28V154.786H193.137V149.172H194.694V161.778H193.137V156.14H186.28V161.778H184.723Z" fill="black"/>
<path d="M199.845 161.778V149.172H207.605V150.527H201.402V154.786H207.204V156.14H201.402V160.424H207.706V161.778H199.845Z" fill="black"/>
<path d="M219.452 161.778V149.172H227.162V150.527H221.009V154.786H226.585V156.14H221.009V161.778H219.452Z" fill="black"/>
<path d="M240.301 149.172H241.859V157.519C241.859 158.381 241.651 159.15 241.237 159.827C240.827 160.5 240.247 161.032 239.498 161.421C238.748 161.807 237.869 162 236.861 162C235.852 162 234.973 161.807 234.223 161.421C233.474 161.032 232.892 160.5 232.478 159.827C232.068 159.15 231.863 158.381 231.863 157.519V149.172H233.42V157.396C233.42 158.011 233.558 158.559 233.834 159.039C234.11 159.515 234.504 159.891 235.015 160.166C235.529 160.437 236.145 160.572 236.861 160.572C237.576 160.572 238.192 160.437 238.707 160.166C239.221 159.891 239.615 159.515 239.887 159.039C240.163 158.559 240.301 158.011 240.301 157.396V149.172Z" fill="black"/>
<path d="M246.298 150.527V149.172H255.943V150.527H251.899V161.778H250.342V150.527H246.298Z" fill="black"/>
<path d="M268.818 149.172H270.376V157.519C270.376 158.381 270.168 159.15 269.754 159.827C269.344 160.5 268.764 161.032 268.015 161.421C267.265 161.807 266.386 162 265.378 162C264.369 162 263.49 161.807 262.74 161.421C261.991 161.032 261.409 160.5 260.995 159.827C260.585 159.15 260.379 158.381 260.379 157.519V149.172H261.937V157.396C261.937 158.011 262.075 158.559 262.351 159.039C262.627 159.515 263.021 159.891 263.531 160.166C264.046 160.437 264.662 160.572 265.378 160.572C266.093 160.572 266.709 160.437 267.224 160.166C267.738 159.891 268.132 159.515 268.404 159.039C268.68 158.559 268.818 158.011 268.818 157.396V149.172Z" fill="black"/>
<path d="M275.519 161.778V149.172H279.864C280.868 149.172 281.693 149.341 282.337 149.677C282.982 150.009 283.459 150.467 283.769 151.05C284.079 151.632 284.234 152.295 284.234 153.038C284.234 153.781 284.079 154.439 283.769 155.014C283.459 155.588 282.984 156.04 282.344 156.368C281.703 156.692 280.885 156.854 279.889 156.854H276.372V155.475H279.838C280.525 155.475 281.077 155.377 281.496 155.18C281.919 154.983 282.224 154.704 282.413 154.343C282.605 153.978 282.702 153.543 282.702 153.038C282.702 152.533 282.605 152.092 282.413 151.714C282.22 151.337 281.913 151.046 281.49 150.84C281.067 150.631 280.508 150.527 279.813 150.527H277.076V161.778H275.519ZM281.571 156.116L284.736 161.778H282.928L279.813 156.116H281.571Z" fill="black"/>
<path d="M288.862 161.778V149.172H296.623V150.527H290.419V154.786H296.221V156.14H290.419V160.424H296.723V161.778H288.862Z" fill="black"/>
<path d="M319.319 155.475C319.319 156.805 319.074 157.954 318.584 158.922C318.094 159.891 317.423 160.638 316.569 161.163C315.715 161.688 314.739 161.951 313.643 161.951C312.546 161.951 311.571 161.688 310.717 161.163C309.863 160.638 309.191 159.891 308.701 158.922C308.211 157.954 307.967 156.805 307.967 155.475C307.967 154.146 308.211 152.997 308.701 152.028C309.191 151.06 309.863 150.313 310.717 149.788C311.571 149.263 312.546 149 313.643 149C314.739 149 315.715 149.263 316.569 149.788C317.423 150.313 318.094 151.06 318.584 152.028C319.074 152.997 319.319 154.146 319.319 155.475ZM317.812 155.475C317.812 154.384 317.626 153.463 317.253 152.712C316.885 151.961 316.385 151.392 315.752 151.007C315.125 150.621 314.421 150.428 313.643 150.428C312.864 150.428 312.159 150.621 311.527 151.007C310.899 151.392 310.399 151.961 310.026 152.712C309.658 153.463 309.474 154.384 309.474 155.475C309.474 156.567 309.658 157.488 310.026 158.239C310.399 158.99 310.899 159.558 311.527 159.944C312.159 160.33 312.864 160.523 313.643 160.523C314.421 160.523 315.125 160.33 315.752 159.944C316.385 159.558 316.885 158.99 317.253 158.239C317.626 157.488 317.812 156.567 317.812 155.475Z" fill="black"/>
<path d="M323.971 161.778V149.172H331.681V150.527H325.528V154.786H331.103V156.14H325.528V161.778H323.971Z" fill="black"/>
<path d="M342.684 150.527V149.172H352.329V150.527H348.285V161.778H346.728V150.527H342.684Z" fill="black"/>
<path d="M356.766 161.778V149.172H361.111C362.115 149.172 362.94 149.341 363.584 149.677C364.229 150.009 364.706 150.467 365.016 151.05C365.326 151.632 365.481 152.295 365.481 153.038C365.481 153.781 365.326 154.439 365.016 155.014C364.706 155.588 364.231 156.04 363.591 156.368C362.95 156.692 362.132 156.854 361.136 156.854H357.619V155.475H361.085C361.772 155.475 362.324 155.377 362.743 155.18C363.166 154.983 363.471 154.704 363.66 154.343C363.852 153.978 363.949 153.543 363.949 153.038C363.949 152.533 363.852 152.092 363.66 151.714C363.467 151.337 363.16 151.046 362.737 150.84C362.314 150.631 361.755 150.527 361.06 150.527H358.323V161.778H356.766ZM362.818 156.116L365.983 161.778H364.175L361.06 156.116H362.818Z" fill="black"/>
<path d="M370.636 161.778H369.004L373.725 149.172H375.333L380.055 161.778H378.422L374.579 151.167H374.479L370.636 161.778ZM371.239 156.854H377.819V158.208H371.239V156.854Z" fill="black"/>
<path d="M383.41 149.172L387.227 159.784H387.378L391.196 149.172H392.828L388.106 161.778H386.499L381.777 149.172H383.41Z" fill="black"/>
<path d="M396.865 161.778V149.172H404.625V150.527H398.422V154.786H404.223V156.14H398.422V160.424H404.726V161.778H396.865Z" fill="black"/>
<path d="M409.465 161.778V149.172H411.022V160.424H417V161.778H409.465Z" fill="black"/>
</svg>
