<svg width="41" height="34" viewBox="0 0 41 34" fill="none" xmlns="http://www.w3.org/2000/svg">
<path d="M41 3.98226C39.4922 4.65522 37.8725 5.10991 36.1698 5.31544C37.9267 4.25652 39.2412 2.58992 39.8678 0.626605C38.2172 1.61419 36.4106 2.30934 34.5266 2.68183C33.2597 1.31932 31.5816 0.416219 29.7529 0.112751C27.9243 -0.190717 26.0473 0.122422 24.4134 1.00355C22.7795 1.88468 21.4801 3.28451 20.717 4.9857C19.9538 6.68688 19.7697 8.59425 20.193 10.4117C16.8483 10.2425 13.5763 9.36687 10.5893 7.84156C7.60235 6.31624 4.96717 4.17535 2.8548 1.55782C2.13252 2.81279 1.71721 4.26781 1.71721 5.81742C1.71641 7.21242 2.05746 8.58605 2.71012 9.81644C3.36278 11.0468 4.30686 12.0959 5.4586 12.8707C4.12289 12.8279 2.81665 12.4643 1.6486 11.8103V11.9194C1.64846 13.876 2.32037 15.7723 3.55032 17.2867C4.78026 18.801 6.49249 19.8401 8.39646 20.2277C7.15737 20.5654 5.85827 20.6152 4.59729 20.3732C5.13448 22.0567 6.18087 23.5288 7.58998 24.5835C8.99909 25.6382 10.7004 26.2227 12.4557 26.2551C9.47596 28.6112 5.79606 29.8892 2.00793 29.8836C1.3369 29.8838 0.666437 29.8443 0 29.7654C3.84517 32.2556 8.32123 33.5772 12.8926 33.5721C28.3674 33.5721 36.8271 20.6623 36.8271 9.4659C36.8271 9.10215 36.818 8.73475 36.8018 8.37099C38.4473 7.17237 39.8677 5.6881 40.9964 3.98772L41 3.98226V3.98226Z" fill="white"/>
</svg>
